<svg width="20" height="21" viewBox="0 0 20 21" fill="none" xmlns="http://www.w3.org/2000/svg">
<g id="uil:sort">
<path id="Vector" d="M13.575 12.4083L9.99999 15.9916L6.42499 12.4083C6.26807 12.2514 6.05524 12.1632 5.83333 12.1632C5.61141 12.1632 5.39858 12.2514 5.24166 12.4083C5.08474 12.5652 4.99658 12.778 4.99658 12.9999C4.99658 13.2219 5.08474 13.4347 5.24166 13.5916L9.40833 17.7583C9.48579 17.8364 9.57796 17.8984 9.67951 17.9407C9.78106 17.983 9.88998 18.0048 9.99999 18.0048C10.11 18.0048 10.2189 17.983 10.3205 17.9407C10.422 17.8984 10.5142 17.8364 10.5917 17.7583L14.7583 13.5916C14.836 13.5139 14.8977 13.4217 14.9397 13.3202C14.9818 13.2186 15.0034 13.1098 15.0034 12.9999C15.0034 12.8901 14.9818 12.7813 14.9397 12.6797C14.8977 12.5782 14.836 12.486 14.7583 12.4083C14.6806 12.3306 14.5884 12.2689 14.4869 12.2269C14.3853 12.1848 14.2765 12.1632 14.1667 12.1632C14.0568 12.1632 13.948 12.1848 13.8465 12.2269C13.7449 12.2689 13.6527 12.3306 13.575 12.4083ZM6.42499 8.59162L9.99999 5.00828L13.575 8.59162C13.6525 8.66972 13.7446 8.73172 13.8462 8.77402C13.9477 8.81633 14.0566 8.83811 14.1667 8.83811C14.2767 8.83811 14.3856 8.81633 14.4871 8.77402C14.5887 8.73172 14.6809 8.66972 14.7583 8.59162C14.8364 8.51415 14.8984 8.42198 14.9407 8.32043C14.983 8.21888 15.0048 8.10996 15.0048 7.99995C15.0048 7.88994 14.983 7.78102 14.9407 7.67947C14.8984 7.57792 14.8364 7.48575 14.7583 7.40828L10.5917 3.24162C10.5142 3.16351 10.422 3.10151 10.3205 3.05921C10.2189 3.0169 10.11 2.99512 9.99999 2.99512C9.88998 2.99512 9.78106 3.0169 9.67951 3.05921C9.57796 3.10151 9.48579 3.16351 9.40833 3.24162L5.24166 7.40828C5.16396 7.48598 5.10233 7.57822 5.06028 7.67974C5.01823 7.78126 4.99658 7.89007 4.99658 7.99995C4.99658 8.22187 5.08474 8.4347 5.24166 8.59162C5.39858 8.74854 5.61141 8.83669 5.83333 8.83669C6.05524 8.83669 6.26807 8.74854 6.42499 8.59162Z" fill="#171717"/>
</g>
</svg>
