<svg width="34" height="24" viewBox="0 0 34 24" fill="none" xmlns="http://www.w3.org/2000/svg">
<rect x="0.5" y="0.5" width="33" height="23" rx="3.5" fill="white" stroke="#DBDBDB"/>
<path fill-rule="evenodd" clip-rule="evenodd" d="M14.6142 18.4493L14.8349 17.0002L14.3432 16.9883H11.9953L13.627 6.29467C13.6321 6.26229 13.6485 6.23223 13.6725 6.21085C13.6967 6.18947 13.7274 6.17773 13.7596 6.17773H17.7185C19.033 6.17773 19.94 6.46037 20.4135 7.01831C20.6355 7.28005 20.7769 7.55365 20.8453 7.85461C20.9171 8.17049 20.9183 8.54782 20.8483 9.00813L20.8432 9.04161V9.33659L21.0652 9.4666C21.2521 9.56913 21.4008 9.68643 21.5147 9.82072C21.7046 10.0446 21.8274 10.3291 21.8793 10.6662C21.933 11.013 21.9153 11.4258 21.8274 11.893C21.7261 12.4304 21.5624 12.8986 21.3412 13.2815C21.1378 13.6344 20.8787 13.9272 20.5709 14.154C20.2772 14.3695 19.9282 14.5332 19.5335 14.6379C19.1511 14.7408 18.7151 14.7927 18.2368 14.7927H17.9287C17.7085 14.7927 17.4945 14.8747 17.3265 15.0217C17.158 15.1718 17.0467 15.3768 17.0125 15.601L16.9892 15.7315L16.5992 18.2858L16.5816 18.3795C16.5768 18.4092 16.5688 18.424 16.557 18.434C16.5465 18.4431 16.5313 18.4493 16.5166 18.4493H14.6142Z" fill="#28356A"/>
<path fill-rule="evenodd" clip-rule="evenodd" d="M21.2756 9.07422C21.2639 9.1523 21.2503 9.23209 21.2352 9.31409C20.7131 12.0847 18.9269 13.0419 16.6456 13.0419H15.4841C15.2051 13.0419 14.9699 13.2512 14.9265 13.5357L14.1634 18.5389C14.1351 18.7258 14.2744 18.894 14.4567 18.894H16.5169C16.7608 18.894 16.968 18.7109 17.0064 18.4622L17.0267 18.354L17.4146 15.8098L17.4395 15.6703C17.4774 15.4208 17.6852 15.2375 17.9291 15.2375H18.2372C20.2331 15.2375 21.7957 14.4 22.2524 11.9761C22.4431 10.9636 22.3444 10.1181 21.8396 9.52353C21.6868 9.34427 21.4973 9.19544 21.2756 9.07422Z" fill="#298FC2"/>
<path fill-rule="evenodd" clip-rule="evenodd" d="M20.7293 8.84993C20.6495 8.82586 20.5672 8.80411 20.4828 8.78443C20.3979 8.76525 20.311 8.74826 20.2215 8.73335C19.9083 8.68106 19.5651 8.65625 19.1975 8.65625H16.0945C16.018 8.65625 15.9454 8.67409 15.8805 8.70635C15.7373 8.77747 15.6311 8.9175 15.6053 9.08894L14.9451 13.4105L14.9262 13.5365C14.9696 13.252 15.2047 13.0427 15.4838 13.0427H16.6453C18.9266 13.0427 20.7128 12.085 21.2349 9.31488C21.2505 9.23289 21.2636 9.15309 21.2753 9.07501C21.1433 9.00255 21.0002 8.9406 20.8462 8.88781C20.8081 8.87473 20.7689 8.86215 20.7293 8.84993Z" fill="#22284F"/>
<path fill-rule="evenodd" clip-rule="evenodd" d="M15.6055 9.08911C15.6312 8.91767 15.7375 8.77764 15.8807 8.70701C15.9461 8.67463 16.0182 8.65679 16.0947 8.65679H19.1977C19.5653 8.65679 19.9085 8.68171 20.2217 8.73401C20.3111 8.7488 20.398 8.76591 20.4829 8.78509C20.5673 8.80464 20.6496 8.82651 20.7294 8.85046C20.769 8.86268 20.8083 8.87539 20.8467 8.88798C21.0008 8.94077 21.1439 9.00321 21.276 9.07518C21.4313 8.05131 21.2747 7.35419 20.7391 6.72293C20.1486 6.02789 19.0829 5.73047 17.7192 5.73047H13.7601C13.4816 5.73047 13.2439 5.93979 13.2009 6.22475L11.5519 17.0283C11.5194 17.2421 11.6789 17.4349 11.8874 17.4349H14.3316L15.6055 9.08911Z" fill="#28356A"/>
</svg>
