<svg width="34" height="24" viewBox="0 0 34 24" fill="none" xmlns="http://www.w3.org/2000/svg">
<rect x="0.5" y="0.5" width="33" height="23" rx="3.5" fill="white" stroke="#DBDBDB"/>
<path fill-rule="evenodd" clip-rule="evenodd" d="M10.7503 15.8579H8.69051L7.14596 9.79198C7.07265 9.51295 6.91699 9.26627 6.68802 9.15001C6.11659 8.85784 5.48692 8.62531 4.8 8.50804V8.2745H8.11808C8.57603 8.2745 8.91948 8.62531 8.97673 9.03274L9.77813 13.4083L11.8369 8.2745H13.8394L10.7503 15.8579ZM14.9842 15.8579H13.039L14.6408 8.2745H16.586L14.9842 15.8579ZM19.1027 10.3753C19.1599 9.96689 19.5034 9.73335 19.9041 9.73335C20.5338 9.67471 21.2197 9.79199 21.7921 10.0832L22.1356 8.45042C21.5631 8.21688 20.9335 8.09961 20.362 8.09961C18.474 8.09961 17.1002 9.15002 17.1002 10.6078C17.1002 11.7169 18.0733 12.2992 18.7603 12.65C19.5034 12.9998 19.7896 13.2334 19.7324 13.5832C19.7324 14.1079 19.1599 14.3414 18.5885 14.3414C17.9016 14.3414 17.2147 14.1665 16.586 13.8743L16.2426 15.5081C16.9295 15.7992 17.6726 15.9165 18.3596 15.9165C20.4765 15.9741 21.7921 14.9247 21.7921 13.3496C21.7921 11.3661 19.1027 11.2498 19.1027 10.3753ZM28.6 15.8579L27.0554 8.2745H25.3964C25.0529 8.2745 24.7095 8.50804 24.595 8.85784L21.7349 15.8579H23.7374L24.1371 14.7498H26.5975L26.8265 15.8579H28.6ZM25.6826 10.3167L26.254 13.1747H24.6523L25.6826 10.3167Z" fill="#172B85"/>
</svg>
